<svg xmlns="http://www.w3.org/2000/svg" viewBox="0 0 400 225" width="100%" height="100%">
    <defs>
        <linearGradient id="bg" x1="0%" y1="0%" x2="100%" y2="100%">
            <stop offset="0%" stop-color="#0f172a"/>
            <stop offset="100%" stop-color="#1e293b"/>
        </linearGradient>
    </defs>
    <rect width="100%" height="100%" fill="url(#bg)" rx="8"/>
    
    <!-- Stars rating -->
    <g transform="translate(110, 120)" fill="#f59e0b">
        <path d="M 0,-15 L 4,-4 L 15,-4 L 7,3 L 10,14 L 0,8 L -10,14 L -7,3 L -15,-4 L -4,-4 Z" />
        <path d="M 40,-15 L 44,-4 L 55,-4 L 47,3 L 50,14 L 40,8 L 30,14 L 33,3 L 25,-4 L 36,-4 Z" />
        <path d="M 80,-15 L 84,-4 L 95,-4 L 87,3 L 90,14 L 80,8 L 70,14 L 73,3 L 65,-4 L 76,-4 Z" />
        <path d="M 120,-15 L 124,-4 L 135,-4 L 127,3 L 130,14 L 120,8 L 110,14 L 113,3 L 105,-4 L 116,-4 Z" />
        <path d="M 160,-15 L 164,-4 L 175,-4 L 167,3 L 170,14 L 160,8 L 150,14 L 153,3 L 145,-4 L 156,-4 Z" />
    </g>

    <text x="200" y="70" font-family="'Inter', sans-serif" font-weight="900" font-size="36" fill="#39ff14" text-anchor="middle">TOP 5</text>
    <text x="200" y="100" font-family="'Inter', sans-serif" font-weight="600" font-size="14" fill="#ffffff" text-anchor="middle">GIÀY CỎ NHÂN TẠO 2026</text>
</svg>
