<svg xmlns="http://www.w3.org/2000/svg" viewBox="0 0 600 250" width="100%" height="100%">
      <defs>
          <linearGradient id="g1" x1="0%" y1="0%" x2="100%" y2="100%">
              <stop offset="0%" stop-color="#1e293b"/>
              <stop offset="100%" stop-color="#0f172a"/>
          </linearGradient>
      </defs>
      <rect width="600" height="250" fill="url(#g1)" rx="12"/>
      <path d="M 350 0 L 600 0 L 600 250 L 300 250 Z" fill="#ef4444" opacity="0.15"/>
      <g transform="translate(420, 40)" stroke="#ef4444" stroke-width="2" fill="none" opacity="0.7">
          <rect x="0" y="0" width="120" height="150" rx="8" stroke="#ffffff"/>
          <line x1="0" y1="50" x2="120" y2="50" stroke="#ffffff"/>
          <line x1="0" y1="100" x2="120" y2="100" stroke="#ffffff"/>
          <path d="M 20 40 Q 40 20 60 40 L 90 40" stroke="#ef4444" stroke-width="4" stroke-linecap="round"/>
          <path d="M 20 90 Q 40 70 60 90 L 90 90" stroke="#eab308" stroke-width="4" stroke-linecap="round"/>
          <path d="M 20 140 Q 40 120 60 140 L 90 140" stroke="#3b82f6" stroke-width="4" stroke-linecap="round"/>
      </g>
      <g transform="translate(40, 90)">
          <rect width="250" height="50" rx="8" fill="rgba(0,0,0,0.6)" />
          <text x="125" y="32" font-family="'Segoe UI', Roboto, sans-serif" font-size="16" font-weight="900" fill="#ffffff" text-anchor="middle" letter-spacing="1">Câu chuyện Sneaker Daily</text>
      </g>
  </svg>