<svg xmlns="http://www.w3.org/2000/svg" viewBox="0 0 600 250" width="100%" height="100%">
      <defs>
          <linearGradient id="g2" x1="0%" y1="0%" x2="100%" y2="100%">
              <stop offset="0%" stop-color="#fffbeb"/>
              <stop offset="100%" stop-color="#fef3c7"/>
          </linearGradient>
      </defs>
      <rect width="600" height="250" fill="url(#g2)" rx="12" stroke="#fcd34d" stroke-width="1"/>
      <path d="M 0 0 L 250 0 L 300 250 L 0 250 Z" fill="#facc15" opacity="0.1"/>
      <g transform="translate(420, 60)">
          <path d="M 10 100 Q 50 60 90 100 L 120 100 Q 130 110 110 110 Z" fill="none" stroke="#d97706" stroke-width="3" stroke-linecap="round"/>
          <path d="M 60 40 L 65 50 L 75 55 L 65 60 L 60 70 L 55 60 L 45 55 L 55 50 Z" fill="#f59e0b"/>
          <path d="M 110 30 L 113 37 L 120 40 L 113 43 L 110 50 L 107 43 L 100 40 L 107 37 Z" fill="#3b82f6"/>
          <circle cx="30" cy="50" r="10" fill="none" stroke="#3b82f6" stroke-width="1.5" opacity="0.5"/>
          <circle cx="45" cy="30" r="6" fill="none" stroke="#3b82f6" stroke-width="1.5" opacity="0.5"/>
          <circle cx="85" cy="25" r="8" fill="none" stroke="#3b82f6" stroke-width="1.5" opacity="0.5"/>
      </g>
      <g transform="translate(40, 70)">
          <rect width="260" height="90" rx="8" fill="rgba(0,0,0,0.75)"/>
          <text x="130" y="32" font-family="'Segoe UI', Roboto, sans-serif" font-size="15" font-weight="900" fill="#fcd34d" text-anchor="middle" letter-spacing="1">MIỄN PHÍ</text>
          <text x="130" y="52" font-family="'Segoe UI', Roboto, sans-serif" font-size="12" font-weight="700" fill="#ffffff" text-anchor="middle" letter-spacing="0.5">SPA GIÀY CHUYÊN NGHIỆP</text>
          <text x="130" y="75" font-family="'Segoe UI', Roboto, sans-serif" font-size="14" font-weight="900" fill="#ffffff" text-anchor="middle">Dịch vụ hài lòng 100%</text>
      </g>
  </svg>