<?xml version="1.0" encoding="UTF-8"?>
<svg xmlns="http://www.w3.org/2000/svg" viewBox="0 0 200 200" width="100%" height="100%">
    <defs>
        <linearGradient id="padGrad_6a3e3781200fc" x1="0%" y1="0%" x2="100%" y2="100%">
            <stop offset="0%" stop-color="#3b82f6" />
            <stop offset="100%" stop-color="#1d4ed8" />
        </linearGradient>
    </defs>
    <rect width="200" height="200" fill="#1e293b" rx="12"/>
    <circle cx="100" cy="100" r="85" fill="none" stroke="#475569" stroke-width="1" stroke-dasharray="2 4"/>
    <rect x="92" y="130" width="16" height="50" rx="3" fill="#e2e8f0"/>
    <rect x="94" y="135" width="12" height="40" rx="2" fill="#0f172a"/>
    <line x1="92" y1="145" x2="108" y2="148" stroke="#475569" stroke-width="1.5"/>
    <line x1="92" y1="155" x2="108" y2="158" stroke="#475569" stroke-width="1.5"/>
    <line x1="92" y1="165" x2="108" y2="168" stroke="#475569" stroke-width="1.5"/>
    <path d="M 85 130 L 115 130 L 110 115 L 90 115 Z" fill="#64748b"/>
    <rect x="58" y="25" width="84" height="96" rx="22" fill="url(#padGrad_6a3e3781200fc)" stroke="#0f172a" stroke-width="4"/>
    <rect x="56" y="23" width="88" height="100" rx="24" fill="none" stroke="#0f172a" stroke-width="2.5"/>
    <path d="M 70 35 L 130 95" stroke="rgba(255,255,255,0.15)" stroke-width="8" stroke-linecap="round"/>
    <circle cx="100" cy="73" r="28" fill="none" stroke="rgba(255,255,255,0.2)" stroke-width="1.5"/>
    <text x="100" y="78" font-family="'Inter', sans-serif" font-size="13" font-weight="900" fill="#ffffff" text-anchor="middle" letter-spacing="1">JOOLA</text>
    <text x="100" y="93" font-family="'Inter', sans-serif" font-size="6" font-weight="700" fill="rgba(255,255,255,0.7)" text-anchor="middle" letter-spacing="1.5">PADDLE</text>
</svg>