<?xml version="1.0" encoding="UTF-8"?><svg xmlns="http://www.w3.org/2000/svg" viewBox="0 0 280 200" width="280" height="200"><defs><linearGradient id="bg_snk25" x1="0%" y1="0%" x2="100%" y2="100%"><stop offset="0%" stop-color="#f8fafc"/><stop offset="100%" stop-color="#cbd5e1"/></linearGradient><linearGradient id="body_snk25" x1="0%" y1="0%" x2="100%" y2="100%"><stop offset="0%" stop-color="#10b981"/><stop offset="100%" stop-color="#064e3b"/></linearGradient><filter id="shd_snk25"><feDropShadow dx="2" dy="4" stdDeviation="4" flood-color="rgba(0,0,0,0.15)"/></filter></defs><rect width="280" height="200" fill="url(#bg_snk25)" rx="12"/><ellipse cx="148" cy="162" rx="100" ry="10" fill="#94a3b8" opacity="0.4"/><path d="M 46 150 Q 140 156 234 150 L 230 160 Q 140 162 48 160 Z" fill="#064e3b" filter="url(#shd_snk25)"/><path d="M 48 150 Q 50 95 100 78 Q 130 65 170 85 Q 210 100 234 135 L 234 150 Z" fill="url(#body_snk25)" stroke="#064e3b" stroke-width="1.5" filter="url(#shd_snk25)"/><path d="M 48 150 Q 50 105 90 85 Q 110 75 130 78 Q 90 88 70 115 Z" fill="#d1fae5" opacity="0.6"/><path d="M 120 85 Q 170 95 215 130" stroke="#d1fae5" stroke-width="8" fill="none" stroke-linecap="round" opacity="0.95"/><path d="M 130 78 Q 140 48 155 43 Q 165 41 168 58 Q 162 68 155 76 Z" fill="#10b981" stroke="#d1fae5" stroke-width="1"/><line x1="138" y1="72" x2="158" y2="69" stroke="#ffffff" stroke-width="2" opacity="0.85"/><line x1="140" y1="79" x2="162" y2="76" stroke="#ffffff" stroke-width="2" opacity="0.85"/><rect x="8" y="8" width="54" height="22" rx="4" fill="#0f172a" opacity="0.85"/><text x="35" y="22" font-family="Arial Black,sans-serif" font-size="7" font-weight="900" fill="#d1fae5" text-anchor="middle">SNEAKER</text><rect x="222" y="8" width="50" height="22" rx="4" fill="#10b981" opacity="0.9"/><text x="247" y="22" font-family="Arial,sans-serif" font-size="8" font-weight="900" fill="#ffffff" text-anchor="middle">#025</text></svg>